<?xml version="1.0" standalone="no"?>
<!DOCTYPE svg PUBLIC "-//W3C//DTD SVG 1.1//EN" "http://www.w3.org/Graphics/SVG/1.1/DTD/svg11.dtd" >
<svg xmlns="http://www.w3.org/2000/svg" xmlns:xlink="http://www.w3.org/1999/xlink" version="1.1">
<metadata></metadata>
<defs>
<font id="exo_2thin" horiz-adv-x="1148" >
<font-face units-per-em="2048" ascent="1638" descent="-410" />
<missing-glyph horiz-adv-x="471" />
<glyph horiz-adv-x="0" />
<glyph unicode="&#xd;" horiz-adv-x="681" />
<glyph unicode=" "  horiz-adv-x="471" />
<glyph unicode="&#x09;" horiz-adv-x="471" />
<glyph unicode="&#xa0;" horiz-adv-x="471" />
<glyph unicode="!" horiz-adv-x="518" d="M225 25v127q0 24 25 24h20q25 0 25 -24v-127q0 -25 -25 -25h-20q-25 0 -25 25zM233 725v698h52v-698l-4 -309h-43z" />
<glyph unicode="&#x22;" horiz-adv-x="669" d="M180 987v426h49v-426h-49zM440 987v426h49v-426h-49z" />
<glyph unicode="#" horiz-adv-x="1366" d="M123 467l8 45h236l79 451h-237l8 45h238l69 405h51l-69 -405h463l69 405h52l-70 -405h223l-8 -45h-223l-80 -451h225l-8 -45h-223l-82 -467h-51l81 467h-462l-82 -467h-51l81 467h-237zM418 512h463l80 451h-463z" />
<glyph unicode="$" horiz-adv-x="1144" d="M141 1073q0 125 23.5 200t84 110.5t128 45t190.5 7.5h31l10 211h43l-10 -213q184 -8 309 -23l-6 -39q-250 14 -307 17l-33 -656l125 -16q156 -18 220.5 -102.5t64.5 -268.5q0 -98 -19.5 -166.5t-51.5 -108.5t-90 -60.5t-116.5 -27t-152.5 -6.5h-21l-14 -253h-43l14 253 q-195 4 -354 23l6 39q184 -14 350 -14l35 665l-141 21q-147 16 -211 102t-64 260zM193 1073q0 -156 51 -226.5t172 -86.5l145 -21l33 650h-27q-80 0 -119.5 -2.5t-92 -11.5t-76 -28.5t-47 -54.5t-31.5 -88t-8 -131zM565 25h21q113 2 176 12t112.5 44t69 97.5t19.5 167.5 q0 166 -52.5 235.5t-181.5 86.5l-129 18z" />
<glyph unicode="%" horiz-adv-x="1808" d="M125 1020q0 219 69.5 318.5t237.5 99.5t237.5 -99.5t69.5 -318.5t-69.5 -318.5t-237.5 -99.5t-237.5 99.5t-69.5 318.5zM172 1020q0 -201 58.5 -290t201.5 -89t201.5 89t58.5 290t-58.5 290t-201.5 89t-201.5 -89t-58.5 -290zM385 0l983 1413h49l-983 -1413h-49z M1069 403.5q0 219.5 69.5 318.5t237.5 99t237.5 -99t69.5 -318.5t-69.5 -318.5t-237.5 -99t-237.5 99t-69.5 318.5zM1116 403.5q0 -200.5 58.5 -289.5t202 -89t201.5 89t58 289.5t-58 289.5t-201.5 89t-202 -89t-58.5 -289.5z" />
<glyph unicode="&#x26;" horiz-adv-x="1603" d="M164 356q0 172 63.5 266.5t216.5 106.5v8q-129 10 -184 92t-55 238q0 98 21.5 163.5t58.5 105.5t106.5 60.5t144 27t195.5 6.5q180 0 326 -17l-8 -37q-59 6 -320 6q-279 0 -375 -58t-96 -259q0 -184 78 -247.5t282 -63.5h469l13 319h37v-319h288l-6 -43h-282v-514 q0 -164 163 -164h181l6 -33q-82 -12 -174 -12q-225 0 -226 207v2q-98 -117 -218.5 -165t-297.5 -48q-223 0 -315 80.5t-92 291.5zM217 356q0 -184 77 -254.5t273 -70.5q184 0 304 55t216 180v445h-469q-223 0 -312 -76t-89 -279z" />
<glyph unicode="'" horiz-adv-x="409" d="M180 987v426h49v-426h-49z" />
<glyph unicode="(" horiz-adv-x="727" d="M141 639q0 387 118 624.5t368 354.5l8 -37q-225 -117 -332.5 -345t-107.5 -595q0 -360 107.5 -589.5t332.5 -352.5l-8 -37q-250 119 -368 355.5t-118 621.5z" />
<glyph unicode=")" horiz-adv-x="727" d="M92 -301q225 123 332.5 352.5t107.5 589.5q0 367 -107.5 595t-332.5 345l8 37q250 -117 368 -354.5t118 -624.5q0 -385 -118 -621.5t-368 -355.5z" />
<glyph unicode="*" horiz-adv-x="927" d="M147 1167l17 45l250 -90l-2 -18l-9 -17zM254 838l192 262l-6 313h49l-10 -313l193 -264l-37 -27l-172 256l-170 -254zM514 1104v18l252 86l16 -45l-260 -76z" />
<glyph unicode="+" horiz-adv-x="1132" d="M139 586v45h404v383h47v-383h403v-45h-405v-383h-43v383h-406z" />
<glyph unicode="," horiz-adv-x="425" d="M182 20v132q-2 24 23 24h18q25 0 25 -24v-132q-4 -143 -37 -260l-25 11q8 109 9 229q-18 0 -13 20z" />
<glyph unicode="-" horiz-adv-x="989" d="M176 492v45h637v-45h-637z" />
<glyph unicode="." horiz-adv-x="421" d="M176 25v127q0 24 25 24h20q25 0 25 -24v-127q0 -25 -25 -25h-20q-25 0 -25 25z" />
<glyph unicode="/" horiz-adv-x="1011" d="M78 -121l805 1534h51l-805 -1534h-51z" />
<glyph unicode="0" horiz-adv-x="1196" d="M158 707q0 383 99 557t341 174t341 -174t99 -557t-99 -557.5t-341 -174.5t-341 174.5t-99 557.5zM211 706.5q0 -360.5 87 -522t300 -161.5t300 161.5t87 522t-87 522.5t-300 162t-300 -162t-87 -522.5z" />
<glyph unicode="1" horiz-adv-x="774" d="M76 1264l387 149h51v-1413h-51v1266q0 49 6 94l-383 -129z" />
<glyph unicode="2" horiz-adv-x="1140" d="M127 0v29q0 14 10 28l492 568q145 170 208.5 296t59.5 250q-6 137 -89 178.5t-257 41.5q-186 0 -399 -45l-13 36q229 55 402 56q217 0 314 -56.5t97 -226.5q0 -137 -65.5 -260t-218.5 -301l-475 -549h245h578v-45h-889z" />
<glyph unicode="3" horiz-adv-x="1130" d="M125 10l12 37q233 -25 404 -24q199 0 286.5 85t87.5 285q0 70 -14 124t-50 104.5t-108.5 78t-177.5 29.5h-264v37l264 6q313 6 314 338q-4 164 -84 222.5t-287 58.5q-164 0 -348 -25l-15 37q199 35 361 35q238 0 330 -71t92 -255q0 -311 -223 -356v-8q256 -39 262 -355 q4 -215 -92.5 -316.5t-329.5 -101.5q-168 0 -420 35z" />
<glyph unicode="4" horiz-adv-x="1218" d="M121 452.5q-31 51.5 0 108.5l457 852h53l-463 -866q-20 -37 -1 -69t60 -32h660v461l14 240h37v-701h168v-36l-168 -7v-403h-51v401h-672q-63 0 -94 51.5z" />
<glyph unicode="5" horiz-adv-x="1077" d="M133 33l12 37q201 -49 357 -50q121 0 199.5 28t118.5 84t54.5 121.5t14.5 162.5q0 86 -14.5 146.5t-52.5 101.5t-81 63.5t-127 34.5t-162.5 15t-211.5 3h-29q-12 0 -20.5 8.5t-6.5 20.5l29 604h684l-6 -45h-633l-25 -543h113q170 -2 268.5 -16t178 -56t112.5 -123 t33 -214q0 -76 -7 -132.5t-33 -118t-72 -100t-127 -64.5t-193 -26q-168 0 -373 58z" />
<glyph unicode="6" horiz-adv-x="1155" d="M166 618q0 215 19.5 359.5t54 237t101.5 140.5t144.5 65.5t198.5 17.5q146 0 244 -25l-17 -37q-78 14 -227 15q-109 0 -178.5 -15.5t-128 -56.5t-89 -120t-48 -199.5t-21.5 -301.5q92 115 184.5 160t231.5 45q219 0 301 -104.5t82 -376.5q0 -115 -14.5 -188.5t-57.5 -137 t-128 -92.5t-218 -29q-113 0 -188.5 24t-124.5 67t-76 124.5t-36 180t-9 247.5zM219 612q0 -137 7 -224t30 -164t64.5 -117.5t110.5 -63.5t171 -23q223 0 294 96.5t71 311.5q0 240 -70 335t-266 95q-123 0 -215 -44t-197 -163v-39z" />
<glyph unicode="7" horiz-adv-x="1034" d="M98 1413h772q51 0 64.5 -18.5t-2.5 -65.5l-463 -1329h-51l448 1290q4 14 13.5 40t13.5 38h-791z" />
<glyph unicode="8" horiz-adv-x="1251" d="M174 352q0 184 52.5 273.5t179.5 103.5v8q-106 12 -154.5 91t-48.5 233q0 199 90 284t334 85q244 2 333 -84t89 -285q0 -154 -48.5 -232.5t-154.5 -91.5v-8q127 -14 179 -103t52 -274q0 -207 -92 -286.5t-358 -81.5q-262 -2 -357.5 79.5t-95.5 288.5zM225 352 q0 -178 83 -248.5t319 -70.5q238 0 318.5 69.5t80.5 249.5q0 121 -15.5 189.5t-64.5 107.5t-118.5 50.5t-198.5 11.5q-131 0 -203 -12.5t-121 -52.5t-64.5 -106.5t-15.5 -187.5zM254 1061q0 -195 71.5 -250t303.5 -55q233 0 300.5 55t67.5 250q0 184 -73.5 252.5 t-296.5 68.5q-221 0 -297 -69.5t-76 -251.5z" />
<glyph unicode="9" horiz-adv-x="1157" d="M137 971q0 236 90 351.5t326 115.5q86 0 149.5 -12.5t110.5 -34t77 -66.5t49 -92t28.5 -132t12.5 -166t3 -210q0 -195 -19.5 -328t-56.5 -217t-103.5 -129t-143 -60.5t-195.5 -15.5q-150 0 -256 25l16 37q117 -14 240 -14q109 0 178.5 14t128.5 55t91 119t49.5 199.5 t17.5 304.5q-92 -115 -184.5 -160t-229.5 -45q-205 0 -292 113.5t-87 347.5zM188 967q0 -207 74 -309.5t258 -102.5q121 0 213 44t197 163q0 100 -2 163.5t-7.5 133t-16.5 110.5t-29.5 84t-46 64.5t-67.5 41t-90 27t-118 7.5q-209 0 -287 -105.5t-78 -320.5z" />
<glyph unicode=":" horiz-adv-x="421" d="M176 25v127q0 24 25 24h20q25 0 25 -24v-127q0 -25 -25 -25h-20q-25 0 -25 25zM176 729v127q0 25 25 25h20q25 0 25 -25v-127q0 -25 -25 -24h-20q-25 0 -25 24z" />
<glyph unicode=";" horiz-adv-x="425" d="M176 729v127q0 25 25 25h20q25 0 25 -25v-127q0 -25 -25 -24h-20q-25 0 -25 24zM182 20v132q-2 24 23 24h18q25 0 25 -24v-132q-4 -143 -37 -260l-25 11q8 109 9 229q-18 0 -13 20z" />
<glyph unicode="&#x3c;" horiz-adv-x="1107" d="M133 582v45l805 374v-45l-756 -352l756 -340v-45z" />
<glyph unicode="=" horiz-adv-x="1206" d="M176 354v45h854v-45h-854zM176 788v46h854v-46h-854z" />
<glyph unicode="&#x3e;" horiz-adv-x="1107" d="M170 219v45l756 340l-756 352v45l805 -374v-45z" />
<glyph unicode="?" horiz-adv-x="1038" d="M102 1421q18 2 59.5 9.5t59 9.5t54 7t66.5 7t76 3t101 1q401 0 402 -317q0 -86 -40 -159t-97.5 -129t-115 -113.5t-97.5 -140.5t-40 -183h-49q0 111 40 198.5t97.5 146t113.5 112t96 121t40 147.5q0 139 -85 205.5t-265 66.5q-192 0 -405 -29zM469 25v127q0 24 25 24h20 q25 0 25 -24v-127q0 -25 -25 -25h-20q-25 0 -25 25z" />
<glyph unicode="@" horiz-adv-x="1419" d="M193 541q0 150 5 238.5t25.5 165.5t49 113t90 62.5t134 32.5t193.5 8h287q268 0 268 -239v-658h-35l-10 166q-74 -63 -209 -119.5t-264 -56.5q-121 0 -187.5 56.5t-66.5 158.5v111q0 96 61.5 148t172.5 52h493v142q0 197 -225 194h-283q-113 0 -173 -4t-118.5 -25.5 t-83 -53.5t-46 -102.5t-25.5 -157.5t-4 -230q0 -113 2 -186.5t13 -141.5t23.5 -106.5t43 -71.5t61.5 -48.5t90.5 -25.5t115.5 -12t150 -2h494v-39q-246 -6 -492 -6q-133 -2 -213.5 3t-148.5 31.5t-100.5 64.5t-55 118t-27.5 172t-5 248zM522 471q0 -168 203 -172 q113 -2 249 49t226 125v272l-493 -8q-184 -6 -185 -157v-109z" />
<glyph unicode="A" horiz-adv-x="1234" d="M39 0l508 1395q6 18 26 18h89q20 0 26 -18l508 -1395h-55l-187 516h-673l-187 -516h-55zM297 561h641l-250 692l-41 115h-59l-41 -115z" />
<glyph unicode="B" horiz-adv-x="1253" d="M211 0v1413q145 16 397 17q256 0 355.5 -77t99.5 -292q0 -154 -57.5 -233t-182.5 -91v-8q152 -14 216.5 -107.5t64.5 -269.5q0 -215 -95.5 -291.5t-338.5 -76.5q-293 0 -459 16zM262 35q143 -4 408 -4q217 0 299 64.5t82 256.5q0 207 -88.5 281t-313.5 78h-387v-676z M262 754h387q203 2 282 64.5t79 242.5q0 193 -87 257t-315 64q-223 0 -346 -4v-624z" />
<glyph unicode="C" d="M156 706.5q0 405.5 115.5 568.5t406.5 163q205 0 356 -35l-12 -37q-154 25 -344 25q-262 0 -365.5 -152t-103.5 -532.5t103.5 -532t365.5 -151.5h16q209 0 357 26l12 -37q-162 -37 -385 -37q-291 0 -406.5 163t-115.5 568.5z" />
<glyph unicode="D" horiz-adv-x="1349" d="M211 0v1413q244 18 469 19q285 0 399.5 -163t114.5 -562.5t-114.5 -562t-399.5 -162.5q-221 0 -469 18zM262 35q369 -6 418 -6q256 0 358.5 150.5t102.5 527t-102.5 527t-358.5 150.5q-168 0 -418 -8v-1341z" />
<glyph unicode="E" horiz-adv-x="1128" d="M199 209v995q0 90 59 149.5t150 59.5q401 0 602 -8l-4 -37h-588q-74 0 -121 -47t-47 -121v-422h672v-43h-672v-522q0 -74 47 -121t121 -47h588l4 -37q-201 -8 -602 -8q-90 0 -149.5 59.5t-59.5 149.5z" />
<glyph unicode="F" horiz-adv-x="1085" d="M205 0v1204q0 90 59.5 149.5t149.5 59.5q391 0 587 -8l-4 -37h-573q-74 0 -121 -47t-47 -121v-430h657v-43h-657v-727h-51z" />
<glyph unicode="G" horiz-adv-x="1273" d="M156 707q0 406 117.5 568.5t410.5 162.5q229 0 401 -35l-12 -37q-172 25 -389 25q-266 0 -370.5 -152t-104.5 -532q0 -362 96 -523t322 -161q72 0 133 16t119.5 53t89 61.5t88.5 75.5v590h51v-819h-35l-12 182q-193 -207 -438 -207q-250 0 -358.5 172t-108.5 560z" />
<glyph unicode="H" horiz-adv-x="1345" d="M211 0v1413h51v-633h821v633h52v-1413h-52v735h-821v-735h-51z" />
<glyph unicode="I" horiz-adv-x="473" d="M211 0v1413h51v-1413h-51z" />
<glyph unicode="J" horiz-adv-x="663" d="M78 0l6 33h119q205 0 205 205v1175h51v-1177q0 -248 -246 -248h-4q-57 0 -131 12z" />
<glyph unicode="K" horiz-adv-x="1150" d="M211 0v1413h49v-483q0 -47 -4 -170h233l498 653h62l-474 -625q-23 -31 -45 -49v-4q37 -37 45 -47l508 -688h-61l-533 715h-233q4 -63 4 -176v-539h-49z" />
<glyph unicode="L" horiz-adv-x="1038" d="M205 209v1204h51v-1200q0 -74 47 -121t121 -47h557v-37q-188 -8 -567 -8q-90 0 -149.5 59.5t-59.5 149.5z" />
<glyph unicode="M" horiz-adv-x="1748" d="M180 0l62 1382q0 31 30 31h86q20 0 27 -18l391 -1035q12 -33 36 -96t36 -96h53l74 197l389 1030q7 18 27 18h86q31 0 30 -31l62 -1382h-51l-62 1368h-49l-463 -1227q-6 -18 -26 -18h-87q-20 0 -26 18l-463 1227h-49l-62 -1368h-51z" />
<glyph unicode="N" horiz-adv-x="1409" d="M211 0v1382q0 31 31 31h80q27 0 36 -22l641 -1180l91 -166h57v184v1184h51v-1382q0 -31 -31 -31h-86q-25 0 -37 23l-655 1206q-12 23 -37.5 68.5t-38.5 70.5h-51v-141v-1227h-51z" />
<glyph unicode="O" horiz-adv-x="1355" d="M156 706.5q0 405.5 115.5 568.5t406.5 163t406.5 -163t115.5 -568.5t-115.5 -568.5t-406.5 -163t-406.5 163t-115.5 568.5zM209 706.5q0 -380.5 103.5 -532t365.5 -151.5t365.5 151.5t103.5 532t-103.5 532.5t-365.5 152t-365.5 -152t-103.5 -532.5z" />
<glyph unicode="P" horiz-adv-x="1189" d="M211 0v1413q164 16 453 17q227 0 317 -88.5t90 -327.5q0 -242 -89 -329t-318 -87q-262 0 -402 8v-606h-51zM262 645h402q201 4 277.5 79t76.5 290t-78 291.5t-276 76.5q-262 0 -402 -4v-733z" />
<glyph unicode="Q" horiz-adv-x="1355" d="M156 706.5q0 405.5 115.5 568.5t406.5 163t406.5 -163t115.5 -568.5t-115.5 -568.5t-406.5 -163t-406.5 163t-115.5 568.5zM209 706.5q0 -380.5 103.5 -532t365.5 -151.5t365.5 151.5t103.5 532t-103.5 532.5t-365.5 152t-365.5 -152t-103.5 -532.5zM586 -133l24 29 q182 -129 459 -175l-14 -51q-279 39 -469 197z" />
<glyph unicode="R" horiz-adv-x="1243" d="M211 0v1413q164 16 453 17q229 0 318 -83t89 -315q0 -188 -60.5 -272t-199.5 -105v-8q98 -31 156 -194l155 -453h-57l-152 446q-66 188 -231 189q-281 0 -420 8v-643h-51zM262 682h402q199 4 276.5 76.5t77.5 273.5q0 205 -78 277.5t-276 72.5q-262 0 -402 -4v-696z" />
<glyph unicode="S" horiz-adv-x="1134" d="M135 1073q0 125 23.5 200t83.5 111q60 34 128 44q56 8 150 8h41q199 -4 383 -25l-6 -39q-246 16 -377 17q-80 0 -120 -2.5t-92 -11.5t-75.5 -28.5t-47 -54.5t-32 -88t-8.5 -131q0 -156 51.5 -226.5t172.5 -86.5l313 -43q156 -18 220.5 -102.5t64.5 -268.5 q0 -98 -19.5 -166.5t-51.5 -108.5t-90.5 -60.5t-116.5 -27t-152 -6.5q-225 0 -418 23l6 39q189 -14 369 -14h45q113 2 176 12t112.5 44t68.5 97.5t19 167.5q0 166 -52 236t-181 86l-313 43q-147 16 -211 102t-64 260z" />
<glyph unicode="T" horiz-adv-x="1155" d="M55 1368v45h1045v-45h-498v-1368h-51v1368h-496z" />
<glyph unicode="U" horiz-adv-x="1366" d="M201 522v891h51v-891q0 -274 97 -386.5t335 -112.5q236 0 333 112.5t97 386.5v891h51v-891q0 -297 -109.5 -422t-371.5 -125q-264 0 -373.5 125t-109.5 422z" />
<glyph unicode="V" horiz-adv-x="1212" d="M53 1413h56l417 -1216q25 -68 52 -152h57q33 102 51 154l418 1214h55l-483 -1395q-8 -18 -27 -18h-86q-18 0 -26 18z" />
<glyph unicode="W" horiz-adv-x="1904" d="M68 1413h53l328 -1227l36 -141h58l35 139l307 1207q6 23 28 22h78q23 0 29 -22l307 -1205q6 -23 17.5 -69.5t17.5 -71.5h57l37 139l328 1229h53l-375 -1393q-6 -20 -28 -20h-86q-23 0 -29 23l-301 1187l-41 158h-49l-41 -158l-301 -1187q-6 -23 -29 -23h-86q-23 0 -29 20 z" />
<glyph unicode="X" horiz-adv-x="1214" d="M78 0l448 737l-422 676h62l407 -651h68l408 651h61l-422 -676l449 -737h-62l-436 717h-64l-436 -717h-61z" />
<glyph unicode="Y" horiz-adv-x="1107" d="M45 1413h57l369 -682q53 -98 78 -139h10q8 14 36 63.5t40 73.5l369 684h57l-481 -887v-526h-52v526z" />
<glyph unicode="Z" horiz-adv-x="1142" d="M106 0v47l863 1319h-856v47h915v-47l-862 -1319h872v-47h-932z" />
<glyph unicode="[" horiz-adv-x="638" d="M217 -274v1783q0 27 18.5 45.5t45.5 18.5h256v-45h-246q-25 0 -25 -25v-1771q0 -25 25 -25h246v-45h-256q-27 0 -45.5 17.5t-18.5 46.5z" />
<glyph unicode="\" horiz-adv-x="1011" d="M78 1413h51l805 -1534h-51z" />
<glyph unicode="]" horiz-adv-x="638" d="M102 -293h246q25 0 25 25v1771q0 25 -25 25h-246v45h256q27 0 45.5 -18.5t18.5 -45.5v-1783q0 -29 -18.5 -46.5t-45.5 -17.5h-256v45z" />
<glyph unicode="^" horiz-adv-x="802" d="M61 774l322 404h37l321 -404l-24 -24l-307 372h-17l-305 -372z" />
<glyph unicode="_" horiz-adv-x="1206" d="M162 0h882v-45h-882v45z" />
<glyph unicode="`" horiz-adv-x="567" d="M102 1415l37 35l305 -297l-28 -27z" />
<glyph unicode="a" horiz-adv-x="1101" d="M135 236v126q0 111 61.5 171.5t174.5 60.5h495v139q0 227 -225 228q-203 0 -461 -33l-6 37q305 43 469 43q272 0 272 -275v-733h-36l-11 190q-72 -74 -209 -138t-268 -64q-123 0 -189.5 64.5t-66.5 183.5zM186 236q0 -195 205 -199h7q110 1 243 59q137 60 225 144v313 l-495 -8q-185 -5 -185 -183v-126z" />
<glyph unicode="b" horiz-adv-x="1142" d="M188 39v1395h50v-445q0 -143 -7 -190q236 209 412 209q193 0 274.5 -118t81.5 -398q0 -279 -91 -398t-306 -119q-176 0 -414 64zM238 74q186 -51 364 -51q186 0 266 106.5t80 362.5t-69.5 362.5t-235.5 106.5q-92 0 -183 -48t-222 -157v-682z" />
<glyph unicode="c" horiz-adv-x="978" d="M141 491.5q0 282.5 101.5 399.5t347.5 117q164 0 276 -35l-12 -37q-96 25 -256 25q-225 0 -315 -100.5t-90 -369t90 -368.5t315 -100h12q154 0 271 24l8 -37q-154 -35 -297 -35q-246 0 -348.5 117t-102.5 399.5z" />
<glyph unicode="d" d="M145 491.5q0 280.5 82 398.5t275 118q174 0 409 -103q-6 53 -6 191v338h49v-1434h-36l-9 172q-221 -197 -407 -197q-193 0 -275 118t-82 398.5zM197 492q0 -256 69.5 -362.5t235.5 -106.5q94 0 185 45t218 151v643q-246 98 -403 99q-166 0 -235.5 -106.5t-69.5 -362.5z " />
<glyph unicode="e" horiz-adv-x="1079" d="M141 495.5q0 280.5 96.5 396.5t325.5 116q381 0 387 -279v-20q0 -119 -45 -179q-49 -64 -166 -65h-546q6 -244 98 -343t295 -99q170 0 334 26l8 -37q-119 -37 -348 -37q-233 0 -336 120t-103 400.5zM193 510h546q88 0 126 53q34 48 34 142v20q-2 121 -85 178.5t-249 57.5 q-203 0 -286.5 -101.5t-85.5 -349.5z" />
<glyph unicode="f" horiz-adv-x="724" d="M72 938v35l178 10v207q0 139 59.5 205.5t196.5 66.5q150 0 242 -8v-37h-226q-123 0 -173 -51t-50 -176v-207h365v-45h-365v-938h-49v938h-178z" />
<glyph unicode="g" horiz-adv-x="1116" d="M117 -152q0 111 26.5 173.5t106.5 105.5l49 27q-70 29 -95 86q-15 33 -15 67q0 25 7 51q19 60 72 105q-110 69 -110 236q0 157 93 233t300 76q119 0 199 -25h307l-6 -37l-211 -6q100 -74 100 -238q0 -156 -91 -228.5t-298 -72.5q-160 0 -252 43q-47 -51 -61 -105 q-3 -14 -3 -28q0 -38 27 -71q37 -45 123 -62l395 -69q125 -23 169 -81.5t44 -179.5q0 -156 -98 -219t-334 -63q-246 0 -345 63.5t-99 218.5zM166 -152q0 -131 89 -183t306 -52q209 0 296 53t87 182q0 102 -36 150.5t-142 67.5l-408 71l-6 2l-69 -43q-72 -41 -94.5 -93 t-22.5 -155zM207 702.5q0 -133.5 80 -195t264 -61.5t262 61.5t78 195t-78 197t-262 63.5t-264 -63.5t-80 -197z" />
<glyph unicode="h" horiz-adv-x="1165" d="M193 0v1434h53v-441q0 -121 -10 -190q274 205 479 205q264 0 264 -269v-739h-49v733q0 227 -225 228q-104 0 -208 -47.5t-255 -153.5v-760h-49z" />
<glyph unicode="i" horiz-adv-x="450" d="M190 1239v127q0 25 25 25h21q25 0 24 -25v-127q0 -25 -24 -25h-21q-25 0 -25 25zM201 0v983h49v-983h-49z" />
<glyph unicode="j" horiz-adv-x="450" d="M88 -410q113 150 113 316v1077h49v-1077q0 -184 -135 -336zM190 1239v127q0 25 25 25h21q25 0 24 -25v-127q0 -25 -24 -25h-21q-25 0 -25 25z" />
<glyph unicode="k" horiz-adv-x="968" d="M193 0v1434h53v-680q0 -88 -8 -168h170l395 397h65l-370 -379q-29 -29 -47 -41v-4q35 -35 47 -51l403 -508h-63l-430 541h-170q4 -63 4 -179v-362h-49z" />
<glyph unicode="l" horiz-adv-x="552" d="M195 195v1239h49v-1237q0 -80 43 -122t121 -42h118l6 -33q-41 -12 -131 -12q-94 0 -150 54t-56 153z" />
<glyph unicode="m" horiz-adv-x="1802" d="M195 0v983h36l7 -180q233 205 438 205q219 0 250 -203q231 203 436 203q123 0 188.5 -69t65.5 -200v-739h-49v733q0 227 -215 228q-96 0 -189.5 -47.5t-232.5 -153.5v-21v-739h-49v733q0 227 -215 228q-96 0 -189.5 -47.5t-232.5 -153.5v-760h-49z" />
<glyph unicode="n" horiz-adv-x="1167" d="M195 0v983h36l7 -180q258 205 479 205q264 0 264 -269v-739h-49v733q0 227 -225 228q-104 0 -208 -47.5t-255 -153.5v-760h-49z" />
<glyph unicode="o" horiz-adv-x="1146" d="M143 491.5q0 284.5 96.5 400.5t334 116t334 -116t96.5 -400.5t-96.5 -400.5t-334 -116t-334 116t-96.5 400.5zM195 491.5q0 -264.5 83.5 -366.5t294.5 -102t295 102t84 366.5t-84 367t-295 102.5t-294.5 -102.5t-83.5 -367z" />
<glyph unicode="p" d="M195 -430v1413h36l9 -178q219 203 407 203q193 0 275 -118t82 -398.5t-82 -398.5t-275 -118q-182 0 -409 109q6 -51 6 -188v-326h-49zM244 121q246 -98 403 -98q166 0 235.5 106.5t69.5 362.5t-69.5 362.5t-235.5 106.5q-94 0 -186 -46.5t-217 -152.5v-641z" />
<glyph unicode="q" horiz-adv-x="1144" d="M143 492q0 283 92.5 399.5t313.5 116.5q168 0 405 -64v-1374h-49v410q0 143 6 190q-127 -100 -225 -147.5t-207 -47.5q-176 0 -256 124t-80 393zM195 489q0 -250 68.5 -358t223.5 -108q102 0 192.5 44t225.5 146v696q-193 51 -348 52q-201 0 -281.5 -103.5t-80.5 -368.5z " />
<glyph unicode="r" horiz-adv-x="784" d="M195 0v983h36l7 -180q260 205 460 205h39l-10 -47h-35q-100 0 -199.5 -47.5t-248.5 -153.5v-760h-49z" />
<glyph unicode="s" horiz-adv-x="1021" d="M127 748q0 172 80 218q74 42 251 42h32q202 -4 380 -25l-6 -37q-197 14 -375 17q-39 1 -69 1t-50 -1q-40 -2 -84 -12.5t-63.5 -34t-33 -64.5t-13.5 -104q0 -104 41 -150.5t123 -56.5l332 -41q223 -29 223 -250q0 -92 -23.5 -147.5t-79 -82t-117 -35t-167.5 -8.5 q-193 0 -356 23l6 37q158 -14 313 -14h39q197 4 266.5 45t69.5 182q0 180 -174 203l-332 41q-106 12 -159.5 71.5t-53.5 182.5z" />
<glyph unicode="t" horiz-adv-x="710" d="M70 938v35l178 10v309h49v-309h365v-45h-365v-741q0 -164 164 -164h180l6 -33q-82 -12 -174 -12q-225 0 -225 207v743h-178z" />
<glyph unicode="u" horiz-adv-x="1146" d="M186 244v739h50v-733q0 -227 225 -227q100 0 198.5 47t243.5 153v760h49v-983h-37l-6 180q-246 -205 -458 -205q-264 0 -265 269z" />
<glyph unicode="v" horiz-adv-x="1038" d="M61 983h54l313 -752q14 -31 39 -93t39 -93h26l80 188l312 750h53l-404 -967q-10 -16 -26 -16h-55q-16 0 -27 16z" />
<glyph unicode="w" horiz-adv-x="1662" d="M70 983h53l283 -807q8 -23 22 -66.5t23 -64.5h28l43 133l258 787q8 18 27 18h49q18 0 27 -18l258 -787l43 -133h28q8 23 22.5 67t22.5 66l283 805h53l-342 -965q-6 -18 -26 -18h-54q-18 0 -26 18l-256 773q-8 25 -23.5 73.5t-23.5 73.5h-21l-49 -147l-254 -773 q-8 -18 -26 -18h-54q-20 0 -26 18z" />
<glyph unicode="x" horiz-adv-x="1034" d="M74 0l372 512l-346 471h62l327 -446h56l327 446h62l-346 -471l373 -512h-62l-358 492h-47l-359 -492h-61z" />
<glyph unicode="y" horiz-adv-x="1036" d="M61 983h54l346 -831l45 -107h26l46 111l346 827h53l-453 -1079q-59 -139 -127.5 -219t-189.5 -115l-12 29q113 43 176 121.5t110 201.5l31 78h-20q-16 0 -27 16z" />
<glyph unicode="z" horiz-adv-x="1021" d="M109 0v45l735 893h-729v45h792v-45l-735 -893h741v-45h-804z" />
<glyph unicode="{" horiz-adv-x="610" d="M115 641v61q47 14 57 17.5t34.5 17t28 28.5t8.5 40.5t5 68.5v441q0 137 59.5 197.5t200.5 60.5v-37q-119 0 -165 -53t-46 -168v-420q0 -121 -29.5 -161t-126.5 -62q100 -35 132 -73t32 -142v-537q0 -113 46 -167t165 -54v-37q-141 0 -200.5 60.5t-59.5 197.5v557 q0 43 -6 68.5t-29.5 44t-39 26t-66.5 25.5z" />
<glyph unicode="|" horiz-adv-x="479" d="M217 -346v1945h45v-1945h-45z" />
<glyph unicode="}" horiz-adv-x="610" d="M94 -301q119 0 165 54t46 167v537q0 104 32 142t132 73q-96 23 -126 62.5t-30 160.5v420q0 115 -46 168t-165 53v37q141 0 200.5 -60.5t59.5 -197.5v-441q0 -98 22 -121.5t112 -50.5v-61q-51 -18 -66.5 -25.5t-39 -26t-30 -44t-6.5 -68.5v-557q0 -137 -59 -197.5 t-201 -60.5v37z" />
<glyph unicode="~" horiz-adv-x="1091" d="M178 494q-2 92 39 140t115 42q90 -4 215 -69.5t215 -69.5q63 -4 91 26.5t28 102.5h34q2 -88 -38.5 -134.5t-114.5 -39.5q-111 6 -233.5 70.5t-196.5 68.5q-61 6 -90 -27.5t-29 -109.5h-35z" />
<glyph unicode="&#xa2;" horiz-adv-x="1032" d="M141 717q0 281 100.5 397.5t340.5 118.5l12 180h43l-12 -180q141 -4 241 -35l-12 -37q-78 20 -233 25l-64 -938h41q162 -1 283 24l8 -36q-154 -35 -297 -35h-39l-14 -201h-43l14 205q-199 16 -284 134t-85 378zM193 717q0 -242 72.5 -345.5t248.5 -119.5l64 934 q-213 -4 -299 -105.5t-86 -363.5z" />
<glyph unicode="&#xa3;" horiz-adv-x="1146" d="M133 723v41h168l-14 315q-6 117 18.5 192t79.5 108.5t114.5 45t155.5 11.5q137 0 320 -21l-6 -37q-152 12 -361 13q-158 0 -218 -71t-54 -235l14 -321h514l-4 -41h-508l10 -225q6 -168 -22.5 -278.5t-126.5 -174.5h123h690v-45h-879v45q102 66 138.5 175.5t27.5 277.5 l-10 225h-170z" />
<glyph unicode="&#xa5;" horiz-adv-x="1232" d="M106 1413h58l362 -620l84 -142h11q72 121 81 140l363 622h57l-458 -786h383v-41h-406v-185h406v-41h-406v-360h-51v360h-395v41h395v185h-395v41h372z" />
<glyph unicode="&#xa8;" horiz-adv-x="817" d="M197 1241v115q0 22 20 22h21q20 0 20 -22v-115q0 -23 -20 -22h-21q-20 0 -20 22zM559 1241v115q1 22 21 22h20q20 0 21 -22v-115q0 -23 -21 -22h-20q-20 0 -21 22z" />
<glyph unicode="&#xa9;" horiz-adv-x="1757" d="M147 706.5q0 315.5 212 523.5t519.5 208t519.5 -208t212 -523.5t-212 -523.5t-519.5 -208t-519.5 208t-212 523.5zM190 706.5q0 -294.5 201 -491.5t487.5 -197t487.5 197t201 491.5t-201 491.5t-487.5 197t-487.5 -197t-201 -491.5zM489 713q0 262 89.5 368.5 t310.5 106.5q166 0 272 -25l-10 -30q-106 12 -262 12q-197 0 -275.5 -95.5t-78.5 -337t78.5 -337.5t275.5 -96q178 0 287 16l8 -33q-123 -25 -295 -24q-221 0 -310.5 106.5t-89.5 368.5z" />
<glyph unicode="&#xab;" horiz-adv-x="925" d="M104 506v16l334 408l25 -21l-303 -395l305 -399l-25 -21zM428 506v16l334 408l24 -21l-303 -395l305 -399l-24 -21z" />
<glyph unicode="&#xad;" horiz-adv-x="989" d="M176 492v45h637v-45h-637z" />
<glyph unicode="&#xae;" horiz-adv-x="1189" d="M139 981q0 188 133.5 321.5t323.5 133.5q188 0 321.5 -133.5t133.5 -321.5q0 -190 -133.5 -323.5t-321.5 -133.5q-190 0 -323.5 133.5t-133.5 323.5zM176 981q0 -176 123 -300t297 -124q172 0 295 124t123 300q0 174 -123 298t-295 124q-174 0 -297 -124t-123 -298z M389 688v580q74 6 229 6q117 0 163 -35t46 -129q0 -74 -30.5 -109t-100.5 -45v-4q53 -10 80 -80l76 -184h-41l-74 180q-31 76 -110 76q-53 0 -121 1t-80 1v-258h-37zM426 973h192q96 2 134.5 30.5t38.5 104.5q0 80 -38 106.5t-135 26.5q-154 0 -192 -2v-266z" />
<glyph unicode="&#xb4;" horiz-adv-x="567" d="M123 1153l305 297l37 -35l-313 -289z" />
<glyph unicode="&#xb8;" horiz-adv-x="448" d="M86 -449l8 31q104 -4 168 50.5t64 134.5q0 57 -26.5 79.5t-94.5 24.5l6 29q80 4 121 -29t39 -104q-2 -106 -80 -169t-205 -47z" />
<glyph unicode="&#xbb;" horiz-adv-x="925" d="M137 115l305 399l-303 395l25 21l334 -408v-16l-336 -412zM461 115l305 399l-303 395l24 21l334 -408v-16l-336 -412z" />
<glyph unicode="&#x2c6;" horiz-adv-x="802" d="M104 1202l279 240h37l278 -240l-22 -24l-266 208h-17l-264 -208z" />
<glyph unicode="&#x2da;" horiz-adv-x="598" d="M102 1307q0 80 57.5 137t139.5 57t139.5 -57.5t57.5 -136.5q0 -82 -57.5 -138.5t-139.5 -56.5t-139.5 56.5t-57.5 138.5zM145 1307q0 -68 44 -112t110 -44t110 44t44 112q0 66 -44 110.5t-110 44.5t-110 -45t-44 -110z" />
<glyph unicode="&#x2dc;" horiz-adv-x="819" d="M113 1225q-2 92 39 140t114 42q59 -6 143.5 -69.5t143.5 -69.5q63 -4 91 26.5t28 102.5h35q2 -88 -39 -134t-115 -40t-157 70.5t-130 68.5q-61 6 -90 -27.5t-29 -109.5h-34z" />
<glyph unicode="&#x401;" horiz-adv-x="1128" d="M199 209v995q0 90 59 149.5t150 59.5q401 0 602 -8l-4 -37h-588q-74 0 -121 -47t-47 -121v-422h672v-43h-672v-522q0 -74 47 -121t121 -47h588l4 -37q-201 -8 -602 -8q-90 0 -149.5 59.5t-59.5 149.5zM422 1667v115q0 23 20 22h21q20 0 20 -22v-115q0 -22 -20 -22h-21 q-20 0 -20 22zM784 1667v115q0 23 21 22h20q20 0 21 -22v-115q-1 -22 -21 -22h-20q-20 0 -21 22z" />
<glyph unicode="&#x402;" horiz-adv-x="1531" d="M55 1368v45h1045v-45h-498v-649q131 92 237.5 129t235.5 37q172 0 255 -98.5t83 -325.5q0 -475 -516 -459l-4 35q233 12 351 102t118 320q0 211 -71.5 295t-223.5 84q-135 0 -233.5 -38t-231.5 -130v-670h-51v1368h-496z" />
<glyph unicode="&#x403;" horiz-adv-x="1052" d="M205 0v1204q0 90 59.5 149.5t149.5 59.5q387 0 583 -8l-4 -37h-569q-74 0 -121 -47t-47 -121v-1200h-51zM510 1534l305 297l37 -35l-313 -289z" />
<glyph unicode="&#x404;" horiz-adv-x="1167" d="M156 706.5q0 403.5 120.5 567.5t421.5 164q209 0 361 -35l-12 -37q-154 25 -349 25q-260 0 -370.5 -137.5t-118.5 -475.5h651v-43h-651v-28q0 -381 108.5 -532.5t380.5 -151.5q211 -1 365 26l12 -37q-162 -37 -377 -37q-301 0 -421.5 164t-120.5 567.5z" />
<glyph unicode="&#x405;" horiz-adv-x="1134" d="M135 1073q0 125 23.5 200t84 110.5t128 45t190.5 7.5q199 -4 383 -25l-6 -39q-246 16 -377 17q-80 0 -120 -2.5t-92 -11.5t-75.5 -28.5t-47 -54.5t-32 -88t-8.5 -131q0 -156 51.5 -226.5t172.5 -86.5l313 -43q156 -18 220.5 -102.5t64.5 -268.5q0 -98 -19.5 -166.5 t-51.5 -108.5t-90.5 -60.5t-116.5 -27t-152 -6.5q-225 0 -418 23l6 39q213 -16 414 -14q113 2 176 12t112.5 44t68.5 97.5t19 167.5q0 166 -52 236t-181 86l-313 43q-147 16 -211 102t-64 260z" />
<glyph unicode="&#x406;" horiz-adv-x="473" d="M211 0v1413h51v-1413h-51z" />
<glyph unicode="&#x407;" horiz-adv-x="473" d="M23 1616v115q0 22 20 22h20q20 0 21 -22v-115q0 -23 -21 -23h-20q-20 0 -20 23zM211 0v1413h51v-1413h-51zM385 1616v115q1 22 21 22h20q20 0 20 -22v-115q0 -23 -20 -23h-20q-20 0 -21 23z" />
<glyph unicode="&#x408;" horiz-adv-x="663" d="M78 0l6 33h119q205 0 205 205v1175h51v-1177q0 -250 -250 -248q-57 0 -131 12z" />
<glyph unicode="&#x409;" horiz-adv-x="1976" d="M53 37q113 63 203 213q82 137 107.5 284.5t70.5 667.5q18 211 217 211h406v-627h377q240 0 332 -90t92 -311q0 -233 -94.5 -317t-329.5 -84q-268 0 -428 16v1368h-347q-164 0 -176 -170q-33 -373 -45 -493.5t-44 -248.5t-91 -225q-119 -203 -242 -231zM1057 35 q135 -4 377 -4q207 0 288.5 72.5t81.5 281.5q0 199 -78.5 276.5t-291.5 77.5h-377v-704z" />
<glyph unicode="&#x40a;" horiz-adv-x="2013" d="M211 0v1413h51v-633h780v633h52v-631h376q240 0 332 -90t92 -307q0 -233 -94 -317t-330 -84q-268 0 -428 16v735h-780v-735h-51zM1094 35q135 -4 376 -4q207 0 289 72.5t82 281.5q0 195 -80 272.5t-291 77.5h-376v-700z" />
<glyph unicode="&#x40b;" horiz-adv-x="1617" d="M55 1368v45h1045v-45h-498v-653q274 170 578 170q295 0 295 -297v-588h-52v582q0 131 -61.5 193.5t-192.5 62.5q-154 0 -279.5 -38t-287.5 -132v-668h-51v1368h-496z" />
<glyph unicode="&#x40c;" horiz-adv-x="1173" d="M211 0v1413h49v-483q0 -47 -4 -170h211q74 0 141.5 38t110.5 81t97 141t76.5 149.5t76.5 176.5q18 45 28 67h54q-131 -311 -181 -403q-143 -257 -307 -271v-4q47 -2 91 -23.5t78 -46t72 -77.5t60.5 -90t58 -114t53 -118t55.5 -134t54 -132h-55q-16 41 -50 123t-51.5 122 t-48 108.5t-51 102t-53.5 84t-63.5 75t-69.5 51t-83 38t-93 11.5h-211q4 -63 4 -176v-539h-49zM492 1534l305 297l37 -35l-314 -289z" />
<glyph unicode="&#x40d;" horiz-adv-x="1388" d="M211 0v1413h51v-1188v-145h2q14 20 43 69.5t39 65.5l782 1198h50v-1413h-52v1194v139h-2q-68 -117 -71 -123l-793 -1210h-49zM436 1796l37 35l305 -297l-28 -27z" />
<glyph unicode="&#x40e;" horiz-adv-x="1099" d="M74 1413h53l346 -903q16 -45 64 -45h104l358 948h54l-414 -1083q-72 -193 -113 -250q-61 -86 -145 -92q-98 -8 -197 24l6 33q70 -12 113 -15t83 7t60.5 24.5t48 59.5t45 87t52.5 130l33 82h-93q-76 0 -102 72zM274 1780l37 8q0 -92 65.5 -142.5t178.5 -50.5 q111 0 175.5 51.5t64.5 141.5l36 -8q0 -109 -74.5 -171.5t-201.5 -62.5q-129 0 -205 62.5t-76 171.5z" />
<glyph unicode="&#x40f;" horiz-adv-x="1363" d="M211 0v1413h51v-1368h840v1368h51v-1413h-446l-5 -309h-36l-9 309h-446z" />
<glyph unicode="&#x410;" horiz-adv-x="1234" d="M39 0l508 1395q6 18 26 18h89q20 0 26 -18l508 -1395h-55l-187 516h-673l-187 -516h-55zM297 561h641l-250 692l-41 115h-59l-41 -115z" />
<glyph unicode="&#x411;" horiz-adv-x="1212" d="M211 0v1413q180 8 407 8q219 0 398 -8l-6 -41h-748v-614h397q240 0 332 -87t92 -300q0 -225 -94 -306t-330 -81q-283 0 -448 16zM262 35q139 -4 397 -4q207 0 289 68.5t82 271.5q0 190 -79 265t-292 75h-397v-676z" />
<glyph unicode="&#x412;" horiz-adv-x="1253" d="M211 0v1413q145 16 397 17q256 0 355.5 -77t99.5 -292q0 -154 -57.5 -233t-182.5 -91v-8q152 -14 216.5 -107.5t64.5 -269.5q0 -215 -95.5 -291.5t-338.5 -76.5q-293 0 -459 16zM262 35q143 -4 408 -4q217 0 299 64.5t82 256.5q0 207 -88.5 281t-313.5 78h-387v-676z M262 754h387q203 2 282 64.5t79 242.5q0 193 -87 257t-315 64q-223 0 -346 -4v-624z" />
<glyph unicode="&#x413;" horiz-adv-x="1052" d="M205 0v1204q0 90 59.5 149.5t149.5 59.5q387 0 583 -8l-4 -37h-569q-74 0 -121 -47t-47 -121v-1200h-51z" />
<glyph unicode="&#x414;" horiz-adv-x="1341" d="M51 45h113q225 391 244 1157q4 211 210 211h478v-1368h168v-354h-37l-13 309h-1114l-12 -309h-37v354zM223 45h821v1323h-421q-162 0 -166 -166q-16 -758 -234 -1157z" />
<glyph unicode="&#x415;" horiz-adv-x="1128" d="M199 209v995q0 90 59 149.5t150 59.5q401 0 602 -8l-4 -37h-588q-74 0 -121 -47t-47 -121v-422h672v-43h-672v-522q0 -74 47 -121t121 -47h588l4 -37q-201 -8 -602 -8q-90 0 -149.5 59.5t-59.5 149.5z" />
<glyph unicode="&#x416;" horiz-adv-x="1798" d="M88 0q16 39 54 132t55.5 134t53.5 118t58.5 114t60.5 90t71.5 77.5t77.5 46t91 23.5v4q-63 6 -121.5 47t-100.5 92.5t-89 141.5t-75.5 154.5t-71.5 168.5q-18 47 -29 70h53q127 -299 174 -383q156 -268 357 -270h182q-6 61 -6 170v483h49v-483q0 -109 -6 -170h166 q74 0 141 38t110 81t97.5 141t77 149.5t75.5 176.5q18 45 29 67h53q-131 -311 -180 -403q-143 -257 -307 -271v-4q47 -2 91 -23.5t78 -46t71.5 -77.5t60 -90t58.5 -114t53.5 -118t55.5 -134t54 -132h-55q-16 41 -50 123t-51.5 122t-48 108.5t-51 102t-53.5 84t-63.5 75 t-69.5 51t-83 38t-93 11.5h-166q6 -96 6 -176v-539h-49v539q0 80 6 176h-182q-49 0 -93.5 -11.5t-83 -38t-69.5 -51t-63.5 -75t-53 -84t-51.5 -102t-48.5 -108.5t-51 -122t-50.5 -123h-55z" />
<glyph unicode="&#x417;" horiz-adv-x="1114" d="M90 12l8 37q12 0 83 -5t163 -9t184 -4q217 0 299 64.5t82 256.5q0 207 -88 283t-313 76h-207v43h207q203 0 281.5 63.5t78.5 243.5q0 193 -87 257t-314 64q-76 0 -148.5 -3t-128 -8t-65.5 -5l-8 37q174 27 350 27q256 0 355.5 -77t99.5 -292q0 -154 -57.5 -232.5 t-182.5 -91.5v-8q152 -14 216.5 -107.5t64.5 -269.5q0 -215 -95.5 -291.5t-339.5 -76.5q-260 0 -438 28z" />
<glyph unicode="&#x418;" horiz-adv-x="1388" d="M211 0v1413h51v-1188v-145h2q14 20 43 69.5t39 65.5l782 1198h50v-1413h-52v1194v139h-2q-68 -117 -71 -123l-793 -1210h-49z" />
<glyph unicode="&#x419;" horiz-adv-x="1388" d="M211 0v1413h51v-1188v-145h2q14 20 43 69.5t39 65.5l782 1198h50v-1413h-52v1194v139h-2q-68 -117 -71 -123l-793 -1210h-49zM416 1796h49q0 -100 63.5 -156.5t167.5 -56.5q102 0 165 56.5t63 156.5h49q0 -111 -76 -180.5t-201 -69.5q-127 0 -203.5 70t-76.5 180z" />
<glyph unicode="&#x41a;" horiz-adv-x="1173" d="M211 0v1413h49v-483q0 -47 -4 -170h211q74 0 141.5 38t110.5 81t97 141t76.5 149.5t76.5 176.5q18 45 28 67h54q-131 -311 -181 -403q-143 -257 -307 -271v-4q47 -2 91 -23.5t78 -46t72 -77.5t60.5 -90t58 -114t53 -118t55.5 -134t54 -132h-55q-16 41 -50 123t-51.5 122 t-48 108.5t-51 102t-53.5 84t-63.5 75t-69.5 51t-83 38t-93 11.5h-211q4 -63 4 -176v-539h-49z" />
<glyph unicode="&#x41b;" horiz-adv-x="1294" d="M29 41q113 61 202 209q82 137 108 284.5t71 667.5q18 211 217 211h456v-1413h-51v1368h-397q-164 0 -176 -170q-33 -373 -45.5 -493.5t-44 -248.5t-90.5 -225q-109 -182 -242 -231z" />
<glyph unicode="&#x41c;" horiz-adv-x="1748" d="M180 0l62 1382q0 31 30 31h86q20 0 27 -18l391 -1035q12 -33 36 -96t36 -96h53l74 197l389 1030q7 18 27 18h86q31 0 30 -31l62 -1382h-51l-62 1368h-49l-463 -1227q-6 -18 -26 -18h-87q-20 0 -26 18l-463 1227h-49l-62 -1368h-51z" />
<glyph unicode="&#x41d;" horiz-adv-x="1345" d="M211 0v1413h51v-633h821v633h52v-1413h-52v735h-821v-735h-51z" />
<glyph unicode="&#x41e;" horiz-adv-x="1355" d="M156 706.5q0 405.5 115.5 568.5t406.5 163t406.5 -163t115.5 -568.5t-115.5 -568.5t-406.5 -163t-406.5 163t-115.5 568.5zM209 706.5q0 -380.5 103.5 -532t365.5 -151.5t365.5 151.5t103.5 532t-103.5 532.5t-365.5 152t-365.5 -152t-103.5 -532.5z" />
<glyph unicode="&#x41f;" horiz-adv-x="1353" d="M211 0v1413h932v-1413h-51v1368h-830v-1368h-51z" />
<glyph unicode="&#x420;" horiz-adv-x="1189" d="M211 0v1413q164 16 453 17q227 0 317 -88.5t90 -327.5q0 -242 -89 -329t-318 -87q-262 0 -402 8v-606h-51zM262 645h402q201 4 277.5 79t76.5 290t-78 291.5t-276 76.5q-262 0 -402 -4v-733z" />
<glyph unicode="&#x421;" d="M156 706.5q0 405.5 115.5 568.5t406.5 163q205 0 356 -35l-12 -37q-154 25 -344 25q-262 0 -365.5 -152t-103.5 -532.5t103.5 -532t365.5 -151.5q219 -1 373 26l12 -37q-162 -37 -385 -37q-291 0 -406.5 163t-115.5 568.5z" />
<glyph unicode="&#x422;" horiz-adv-x="1155" d="M55 1368v45h1045v-45h-498v-1368h-51v1368h-496z" />
<glyph unicode="&#x423;" horiz-adv-x="1099" d="M74 1413h53l346 -903q16 -45 64 -45h104l358 948h54l-414 -1083q-72 -193 -113 -250q-61 -86 -145 -92q-98 -8 -197 24l6 33q70 -12 113 -15t83 7t60.5 24.5t48 59.5t45 87t52.5 130l33 82h-93q-76 0 -102 72z" />
<glyph unicode="&#x424;" horiz-adv-x="1681" d="M154 727q0 332 149.5 468t511.5 140v217h51v-217q362 -4 512 -140t150 -468t-149.5 -468t-512.5 -140v-217h-51v217q-362 4 -511.5 140t-149.5 468zM207 727q0 -315 135 -437t473 -126v1126q-338 -4 -473 -126t-135 -437zM866 164q338 4 473.5 126t135.5 437t-135.5 437 t-473.5 126v-1126z" />
<glyph unicode="&#x425;" horiz-adv-x="1226" d="M84 0l448 737l-421 676h61l408 -651h67l408 651h61l-422 -676l449 -737h-62l-436 717h-63l-437 -717h-61z" />
<glyph unicode="&#x426;" horiz-adv-x="1376" d="M211 0v1413h51v-1368h815v1368h51v-1368h168v-354h-36l-13 309h-1036z" />
<glyph unicode="&#x427;" horiz-adv-x="1239" d="M145 846v567h52v-561q0 -131 58 -193.5t183 -62.5q147 0 265 37t274 133v647h51v-1413h-51v719q-260 -170 -549 -170q-283 0 -283 297z" />
<glyph unicode="&#x428;" horiz-adv-x="1845" d="M211 0v1413h51v-1368h635v1368h51v-1368h635v1368h51v-1413h-1423z" />
<glyph unicode="&#x429;" horiz-adv-x="1859" d="M211 0v1413h51v-1368h625v1368h51v-1368h625v1368h51v-1368h168v-354h-37l-12 309h-1522z" />
<glyph unicode="&#x42a;" horiz-adv-x="1523" d="M55 1368v45h529v-627h397q240 0 332 -90t92 -311q0 -233 -94 -317t-330 -84q-283 0 -449 16v1368h-477zM584 35q139 -4 397 -4q207 0 289 72.5t82 281.5q0 199 -79 276.5t-292 77.5h-397v-704z" />
<glyph unicode="&#x42b;" horiz-adv-x="1656" d="M211 0v1413h51v-627h397q240 0 332 -90t92 -311q0 -233 -94 -317t-330 -84q-283 0 -448 16zM262 35q139 -4 397 -4q207 0 289 72.5t82 281.5q0 199 -79 276.5t-292 77.5h-397v-704zM1395 0v1413h51v-1413h-51z" />
<glyph unicode="&#x42c;" horiz-adv-x="1202" d="M211 0v1413h51v-627h397q240 0 332 -90t92 -311q0 -233 -94 -317t-330 -84q-283 0 -448 16zM262 35q139 -4 397 -4q207 0 289 72.5t82 281.5q0 199 -79 276.5t-292 77.5h-397v-704z" />
<glyph unicode="&#x42d;" horiz-adv-x="1167" d="M92 12l12 37q154 -27 365 -26q272 0 380.5 151.5t108.5 532.5v30h-651v43h651q-8 336 -119.5 473.5t-369.5 137.5q-194 0 -348 -25l-12 37q152 35 360 35q301 0 422 -164t121 -567.5t-121 -567.5t-422 -164q-215 0 -377 37z" />
<glyph unicode="&#x42e;" horiz-adv-x="1828" d="M213 0v1413h51v-653h385q6 373 119 525.5t383 152.5q291 0 406.5 -163t115.5 -568.5t-115.5 -568.5t-406.5 -163q-279 0 -390.5 163t-111.5 569v8h-385v-715h-51zM702 706.5q0 -380.5 99.5 -532t349.5 -151.5q262 0 365.5 151.5t103.5 532t-103.5 532.5t-365.5 152 q-250 0 -349.5 -152t-99.5 -532.5z" />
<glyph unicode="&#x42f;" horiz-adv-x="1232" d="M111 0l155 432q60 162 160 195l-2 12q-117 18 -179.5 126.5t-62.5 246.5q0 231 96.5 324.5t311.5 93.5q274 0 432 -17v-1413h-51v623q-139 -8 -420 -9q-166 0 -232 -188l-151 -426h-57zM236 1012q0 -158 76.5 -254t242.5 -96h416v716q-135 4 -381 4q-186 0 -270 -81.5 t-84 -288.5z" />
<glyph unicode="&#x430;" horiz-adv-x="1101" d="M135 236v126q0 111 61.5 171.5t174.5 60.5h495v139q0 227 -225 228q-203 0 -461 -33l-6 37q305 43 469 43q272 0 272 -275v-733h-36l-11 190q-72 -74 -209 -138t-268 -64q-123 0 -189.5 64.5t-66.5 183.5zM186 236q0 -195 205 -199q113 -2 250 58.5t225 144.5v313 l-495 -8q-185 -5 -185 -183v-126z" />
<glyph unicode="&#x431;" d="M176 604q0 150 7 246t31 186t68 145.5t115.5 100.5t177.5 76q23 6 69 19.5t69.5 20.5t62.5 21.5t76 33.5t80 48l14 -35q-35 -25 -70.5 -44t-60 -31.5t-64.5 -25.5t-54.5 -17.5t-58.5 -16.5t-50 -14q-199 -57 -270.5 -165t-88.5 -310q-4 -49 -8 -140h2q57 254 398 254 q215 0 299 -109.5t84 -381.5q0 -119 -15.5 -200t-58.5 -151.5t-127 -104.5t-213 -34q-82 0 -144.5 15.5t-106.5 41t-73.5 70.5t-47 91.5t-27 118t-12.5 135t-3 157.5zM227 475q0 -252 83 -352t286 -100q199 0 277.5 99t78.5 355q0 244 -73.5 338t-266.5 94 q-227 0 -306 -108.5t-79 -325.5z" />
<glyph unicode="&#x432;" horiz-adv-x="1120" d="M193 0v981q135 12 350 12q227 0 315 -55t88 -207q0 -104 -51 -159.5t-162 -63.5v-4q135 -10 191.5 -73.5t56.5 -186.5q0 -147 -84 -201.5t-299 -54.5q-250 0 -405 12zM240 35q145 -4 356 -2q188 0 261 43t73 170q0 137 -77 188t-273 51h-340v-450zM240 526h340 q180 2 247.5 43t67.5 160q0 131 -77 175t-275 44q-174 2 -303 -2v-420z" />
<glyph unicode="&#x433;" horiz-adv-x="897" d="M188 0v791q0 90 50.5 141t138.5 51q301 0 459 -6v-39h-449q-150 0 -149 -154v-784h-50z" />
<glyph unicode="&#x434;" horiz-adv-x="1124" d="M61 43h86q176 262 199 754q10 186 191 186h368v-940h111v-340h-37l-10 297h-860l-11 -297h-37v340zM205 43h651v897h-313q-141 0 -148 -145q-18 -487 -190 -752z" />
<glyph unicode="&#x435;" horiz-adv-x="1079" d="M141 495.5q0 280.5 96.5 396.5t325.5 116q381 0 387 -279q4 -135 -45 -199.5t-166 -64.5h-546q6 -244 98 -343t295 -99q170 0 334 26l8 -37q-119 -37 -348 -37q-233 0 -336 120t-103 400.5zM193 510h546q88 0 126 53t34 162q-2 121 -85 178.5t-249 57.5 q-203 0 -286.5 -101.5t-85.5 -349.5z" />
<glyph unicode="&#x436;" horiz-adv-x="1554" d="M94 0q117 264 158 330q106 172 246 182v2q-45 4 -84 22.5t-77 62.5t-60.5 71.5t-59.5 103.5t-47 98.5t-49 110.5h55q106 -236 166 -315q102 -133 238 -133h186q-6 41 -6 118v330h49v-330q0 -78 -6 -118h174q72 0 132 33.5t106.5 101t79 131t75.5 157.5q6 16 10 25h56 q-39 -88 -49.5 -110.5t-47 -98.5t-59.5 -103.5t-60.5 -71.5t-76.5 -62.5t-84 -22.5v-2q86 -6 159.5 -79t109.5 -141.5t106 -228.5q18 -41 28 -63h-55q-10 25 -34.5 80t-35 76.5t-33 67.5t-35 66.5t-35 55.5t-39.5 50.5t-43 38t-50.5 31.5t-55 17.5t-65.5 8.5h-178 q6 -61 6 -119v-373h-49v373q0 57 6 119h-191q-35 0 -65.5 -8.5t-55 -17.5t-50 -31.5t-43 -38t-40 -50.5t-35 -55.5t-35 -66.5t-32.5 -67.5t-34.5 -76.5t-34.5 -80h-56z" />
<glyph unicode="&#x437;" horiz-adv-x="966" d="M96 8l8 37q295 -12 324 -12q193 0 268.5 50t75.5 165q0 135 -73.5 184t-264.5 53h-190v41h190q180 2 245.5 44t65.5 163q0 133 -76.5 175t-295.5 42q-172 0 -252 -12l-8 37q123 20 272 20q236 0 324 -53t88 -203q0 -109 -46 -165t-165 -66v-4q127 -10 183 -72.5 t56 -189.5q0 -133 -89 -193.5t-306 -60.5q-193 0 -334 20z" />
<glyph unicode="&#x438;" horiz-adv-x="1189" d="M193 0v983h49v-797v-114h2q27 41 67 92l641 819h45v-983h-49v805v106h-2q-20 -35 -59 -84l-649 -827h-45z" />
<glyph unicode="&#x439;" horiz-adv-x="1189" d="M193 0v983h49v-797v-114h2q27 41 67 92l641 819h45v-983h-49v805v106h-2q-20 -35 -59 -84l-649 -827h-45zM293 1423h49q0 -100 63.5 -156.5t167.5 -56.5q102 0 165 56.5t63 156.5h49q0 -111 -76 -180t-201 -69q-127 0 -203.5 69.5t-76.5 179.5z" />
<glyph unicode="&#x43a;" horiz-adv-x="1054" d="M193 0v983h49v-330q0 -37 -4 -118h204q78 0 142.5 32.5t115 98t86 128t80.5 154.5q10 25 17 35h53q-117 -246 -182 -328q-103 -131 -226 -141v-2q72 -4 131.5 -40t108.5 -106.5t84 -135t86 -173.5q16 -39 27 -57h-56q-8 16 -37.5 78.5t-38 78t-35 67.5t-37.5 67.5 t-38 54.5t-44 51.5t-47 37t-56.5 32.5t-60.5 16.5t-71 8.5h-206q4 -41 4 -119v-373h-49z" />
<glyph unicode="&#x43b;" horiz-adv-x="1099" d="M47 33q121 53 180 172q31 59 53.5 151.5t32 161t19.5 165.5t12 116q12 94 59.5 139t143.5 45h358v-983h-49v940h-313q-72 0 -108 -36t-44 -107q-2 -18 -11 -100.5t-12 -114t-14.5 -102t-21.5 -111.5t-26.5 -94.5t-37.5 -92.5q-78 -150 -213 -192z" />
<glyph unicode="&#x43c;" horiz-adv-x="1474" d="M170 0l51 956q0 27 29 27h76q18 0 24 -18l307 -699q41 -90 60 -135h41q4 10 25.5 60.5t33.5 76.5l307 697q7 18 27 18h74q29 0 28 -27l52 -956h-50l-49 938h-41l-366 -829q-8 -18 -25 -19h-74q-16 0 -24 19l-367 829h-41l-49 -938h-49z" />
<glyph unicode="&#x43d;" horiz-adv-x="1159" d="M193 0v983h49v-436h676v436h49v-983h-49v504h-676v-504h-49z" />
<glyph unicode="&#x43e;" horiz-adv-x="1146" d="M143 491.5q0 284.5 96.5 400.5t334 116t334 -116t96.5 -400.5t-96.5 -400.5t-334 -116t-334 116t-96.5 400.5zM195 491.5q0 -264.5 83.5 -366.5t294.5 -102t295 102t84 366.5t-84 367t-295 102.5t-294.5 -102.5t-83.5 -367z" />
<glyph unicode="&#x43f;" horiz-adv-x="1155" d="M193 0v983h770v-983h-50v940h-671v-940h-49z" />
<glyph unicode="&#x440;" d="M195 -430v1413h36l9 -178q219 203 407 203q193 0 275 -118t82 -398.5t-82 -398.5t-275 -118q-182 0 -409 109q6 -51 6 -188v-326h-49zM244 121q246 -98 403 -98q166 0 235.5 106.5t69.5 362.5t-69.5 362.5t-235.5 106.5q-94 0 -186 -46.5t-217 -152.5v-641z" />
<glyph unicode="&#x441;" horiz-adv-x="978" d="M141 491.5q0 282.5 101.5 399.5t347.5 117q164 0 276 -35l-12 -37q-96 25 -256 25q-225 0 -315 -100.5t-90 -369t90 -368.5t315 -100q162 -1 283 24l8 -37q-154 -35 -297 -35q-246 0 -348.5 117t-102.5 399.5z" />
<glyph unicode="&#x442;" horiz-adv-x="962" d="M61 938v45h840v-45h-395v-938h-51v938h-394z" />
<glyph unicode="&#x443;" horiz-adv-x="1036" d="M61 983h54l346 -831l45 -107h26l46 111l346 827h53l-453 -1079q-78 -190 -172 -269q-117 -82 -266 -57l4 29q143 -8 242 65q80 72 149 250l31 78h-20q-16 0 -27 16z" />
<glyph unicode="&#x444;" horiz-adv-x="1425" d="M139 491.5q0 272.5 125 392.5t424 124v426h51v-426q297 -4 422 -124t125 -392.5t-125 -392t-422 -124.5v-405h-51v405q-299 4 -424 124t-125 392.5zM190 491.5q0 -258.5 113 -361.5t385 -107v938q-272 -4 -385 -107.5t-113 -362zM739 23q272 4 384 108.5t112 360.5 t-112 360.5t-384 108.5v-938z" />
<glyph unicode="&#x445;" horiz-adv-x="1034" d="M74 0l372 512l-346 471h62l327 -446h56l327 446h62l-346 -471l373 -512h-62l-358 492h-47l-359 -492h-61z" />
<glyph unicode="&#x446;" horiz-adv-x="1159" d="M195 0v983h49v-940h649v940h49v-940h109v-336h-35l-12 293h-809z" />
<glyph unicode="&#x447;" horiz-adv-x="1034" d="M133 582v401h49v-393q0 -168 170 -168q217 0 441 106v455h49v-983h-49v483q-221 -111 -453 -110q-207 0 -207 209z" />
<glyph unicode="&#x448;" horiz-adv-x="1599" d="M193 0v983h51v-940h530v940h51v-940h533v940h49v-983h-1214z" />
<glyph unicode="&#x449;" horiz-adv-x="1628" d="M195 0v983h49v-940h532v940h49v-940h537v940h47v-940h111v-336h-37l-10 293h-1278z" />
<glyph unicode="&#x44a;" horiz-adv-x="1277" d="M61 938v45h426v-434h324q201 0 278.5 -63.5t77.5 -217.5q0 -162 -78.5 -221t-275.5 -59q-229 0 -375 12v938h-377zM487 37q123 -4 324 -4q168 0 235.5 49t67.5 188q0 131 -64.5 183.5t-238.5 52.5h-324v-469z" />
<glyph unicode="&#x44b;" horiz-adv-x="1380" d="M193 0v983h49v-434h325q176 0 245 -63.5t69 -217.5q0 -162 -69 -221t-243 -59q-231 0 -376 12zM242 37q119 -4 325 -4q145 0 202.5 48t57.5 189q0 133 -55 184.5t-205 51.5h-325v-469zM1137 0v983h49v-983h-49z" />
<glyph unicode="&#x44c;" horiz-adv-x="1032" d="M193 0v983h49v-434h325q201 0 278 -62.5t77 -218.5q0 -162 -79 -221t-274 -59q-231 0 -376 12zM242 37q119 -4 325 -4q168 0 234.5 49t66.5 188q0 133 -64.5 184.5t-236.5 51.5h-325v-469z" />
<glyph unicode="&#x44d;" horiz-adv-x="989" d="M96 10l10 39q131 -18 297 -18q217 0 303.5 99t88.5 353h-521v41h521q-6 233 -93.5 326.5t-298.5 93.5q-159 0 -284 -16l-10 39q117 25 294 24q246 0 344.5 -111.5t98.5 -392.5q0 -279 -98.5 -391t-344.5 -112q-180 0 -307 26z" />
<glyph unicode="&#x44e;" horiz-adv-x="1570" d="M195 0v983h49v-453h319q4 266 98.5 372t323.5 106q246 0 344 -113t98 -399q0 -285 -98 -398.5t-344 -113.5q-233 0 -326.5 111.5t-95.5 391.5h-319v-487h-49zM616 495.5q0 -262.5 81 -364.5t288 -102q217 0 303 102t86 364.5t-86 365t-303 102.5q-207 0 -288 -102.5 t-81 -365z" />
<glyph unicode="&#x44f;" horiz-adv-x="1075" d="M115 0l94 285q37 113 197 133v6q-123 2 -184.5 81t-61.5 210q0 119 75.5 195.5t241.5 76.5q246 0 404 -12v-975h-50v399h-325q-211 0 -254 -137l-82 -262h-55zM211 707q0 -264 295 -265h325v496q-119 4 -354 4q-139 0 -202.5 -65.5t-63.5 -169.5z" />
<glyph unicode="&#x451;" horiz-adv-x="1079" d="M141 495.5q0 280.5 96.5 396.5t325.5 116q381 0 387 -279q4 -135 -45 -199.5t-166 -64.5h-546q6 -244 98 -343t295 -99q170 0 334 26l8 -37q-119 -37 -348 -37q-233 0 -336 120t-103 400.5zM193 510h546q88 0 126 53t34 162q-2 121 -85 178.5t-249 57.5 q-203 0 -286.5 -101.5t-85.5 -349.5zM354 1243v115q0 23 21 22h20q20 0 21 -22v-115q-1 -22 -21 -22h-20q-20 0 -21 22zM717 1243v115q0 23 20 22h21q20 0 20 -22v-115q0 -22 -20 -22h-21q-20 0 -20 22z" />
<glyph unicode="&#x452;" horiz-adv-x="1159" d="M68 1047v40h165v347h52v-347h448v-40h-446v-259q0 -121 -11 -190q274 205 480 205q264 0 264 -268v-535h-49v528q0 227 -226 228q-104 0 -207.5 -47t-254.5 -154v-555h-50v1047h-165z" />
<glyph unicode="&#x453;" horiz-adv-x="897" d="M188 0v791q0 90 50.5 141t138.5 51q301 0 459 -6v-39h-449q-150 0 -149 -154v-784h-50zM428 1161l305 297l37 -35l-313 -288z" />
<glyph unicode="&#x454;" horiz-adv-x="991" d="M145 487q0 281 98.5 392.5t344.5 111.5q178 0 295 -24l-11 -39q-125 16 -284 16q-211 0 -298 -93t-93 -329h520v-41h-520q2 -252 88 -351t303 -99q166 0 297 18l10 -39q-127 -27 -307 -26q-246 0 -344.5 112.5t-98.5 390.5z" />
<glyph unicode="&#x455;" horiz-adv-x="1021" d="M127 748q0 172 80 218t282.5 42t380.5 -25l-6 -37q-197 14 -375 17q-78 2 -118.5 0t-84.5 -12.5t-63.5 -34t-33 -64.5t-13.5 -104q0 -104 41 -150.5t123 -56.5l332 -41q223 -29 223 -250q0 -92 -23.5 -147.5t-79 -82t-117 -35t-167.5 -8.5q-193 0 -356 23l6 37 q178 -16 352 -14q197 4 266.5 45t69.5 182q0 180 -174 203l-332 41q-106 12 -159.5 71.5t-53.5 182.5z" />
<glyph unicode="&#x456;" horiz-adv-x="450" d="M190 1239v127q0 25 25 25h21q25 0 24 -25v-127q0 -25 -24 -25h-21q-25 0 -25 25zM201 0v983h49v-983h-49z" />
<glyph unicode="&#x457;" horiz-adv-x="450" d="M10 1243v115q1 22 21 22h20q20 0 21 -22v-115q0 -23 -21 -22h-20q-20 0 -21 22zM201 0v983h49v-983h-49zM373 1243v115q0 22 20 22h21q20 0 20 -22v-115q0 -23 -20 -22h-21q-20 0 -20 22z" />
<glyph unicode="&#x458;" horiz-adv-x="450" d="M88 -410q113 150 113 316v1077h49v-1077q0 -184 -135 -336zM190 1239v127q0 25 25 25h21q25 0 24 -25v-127q0 -25 -24 -25h-21q-25 0 -25 25z" />
<glyph unicode="&#x459;" horiz-adv-x="1576" d="M66 39q100 57 159 147q63 102 82 196.5t53 444.5q16 156 183 156h309v-412h283q186 0 257.5 -65.5t71.5 -226.5q0 -98 -21.5 -158t-74.5 -88.5t-113.5 -36.5t-169.5 -8q-160 0 -282 12v942h-260q-121 0 -133 -121q-33 -340 -53.5 -446.5t-84.5 -204.5q-78 -127 -194 -170 zM852 35q115 -4 225 -4q197 0 266.5 44t69.5 204q0 141 -59.5 196t-218.5 55h-283v-495z" />
<glyph unicode="&#x45a;" horiz-adv-x="1605" d="M195 0v983h49v-418h587v418h50v-416h284q186 0 257 -64.5t71 -221.5q0 -170 -72.5 -231.5t-253.5 -61.5q-205 0 -336 12v524h-587v-524h-49zM881 35q111 -4 284 -4q154 0 215.5 51t61.5 199q0 137 -58.5 191t-218.5 54h-284v-491z" />
<glyph unicode="&#x45b;" horiz-adv-x="1159" d="M68 1047v40h165v347h52v-347h448v-40h-446v-259q0 -121 -11 -190q274 205 480 205q264 0 264 -268v-629q0 -184 -135 -336l-27 20q113 150 113 318v620q0 227 -226 228q-104 0 -207.5 -47t-254.5 -154v-555h-50v1047h-165z" />
<glyph unicode="&#x45c;" horiz-adv-x="1054" d="M193 0v983h49v-330q0 -37 -4 -118h204q78 0 142.5 32.5t115 98t86 128t80.5 154.5q10 25 17 35h53q-117 -246 -182 -328q-103 -131 -226 -141v-2q72 -4 131.5 -40t108.5 -106.5t84 -135t86 -173.5q16 -39 27 -57h-56q-8 16 -37.5 78.5t-38 78t-35 67.5t-37.5 67.5 t-38 54.5t-44 51.5t-47 37t-56.5 32.5t-60.5 16.5t-71 8.5h-206q4 -41 4 -119v-373h-49zM463 1161l305 297l37 -35l-313 -288z" />
<glyph unicode="&#x45d;" horiz-adv-x="1189" d="M193 0v983h49v-797v-114h2q27 41 67 92l641 819h45v-983h-49v805v106h-2q-20 -35 -59 -84l-649 -827h-45zM313 1423l37 35l305 -297l-28 -26z" />
<glyph unicode="&#x45e;" horiz-adv-x="1036" d="M61 983h54l346 -831l45 -107h26l46 111l346 827h53l-453 -1079q-78 -190 -172 -269q-117 -82 -266 -57l4 29q143 -8 242 65q80 72 149 250l31 78h-20q-16 0 -27 16zM248 1423h49q0 -100 63.5 -156.5t167.5 -56.5q102 0 165 56.5t63 156.5h49q0 -111 -76 -180t-201 -69 q-127 0 -203.5 69.5t-76.5 179.5z" />
<glyph unicode="&#x45f;" horiz-adv-x="1157" d="M195 0v983h51v-940h665v940h52v-983h-357l-8 -344h-35l-12 344h-356z" />
<glyph unicode="&#x490;" horiz-adv-x="1050" d="M205 0v1204q0 90 59.5 149.5t149.5 59.5q356 0 536 -6l11 315h34v-317l-2 -37h-569q-74 0 -121 -47t-47 -121v-1200h-51z" />
<glyph unicode="&#x491;" horiz-adv-x="897" d="M188 0v791q0 90 50.5 141t138.5 51q262 0 414 -4l10 305h35v-346h-449q-150 0 -149 -154v-784h-50z" />
<glyph unicode="&#x4b0;" horiz-adv-x="1138" d="M61 1413h58l368 -682q53 -98 78 -139h10q8 14 36 63.5t40 73.5l369 684h57l-475 -874h326v-41h-332v-498h-51v498h-334v41h328z" />
<glyph unicode="&#x4b1;" horiz-adv-x="1150" d="M68 983h57l369 -682q53 -98 77 -139h11q8 14 35.5 63t39.5 74l369 684h57l-475 -874h326v-41h-332v-498h-51v498h-334v41h328z" />
<glyph unicode="&#x4b6;" horiz-adv-x="1267" d="M145 846v567h52v-561q0 -131 61 -193.5t193 -62.5q141 0 258.5 37t267.5 131v649h51v-1368h158v-354h-37l-12 309h-160v717q-254 -168 -537 -168q-295 0 -295 297z" />
<glyph unicode="&#x4b7;" horiz-adv-x="1058" d="M133 582v401h49v-393q0 -168 170 -168q217 0 441 106v455h49v-940h108v-336h-35l-12 293h-110v483q-221 -111 -453 -110q-207 0 -207 209z" />
<glyph unicode="&#x4ba;" horiz-adv-x="1239" d="M211 0v1413h51v-717q254 168 537 168q295 0 295 -297v-567h-52v561q0 131 -61 193.5t-193 62.5q-141 0 -258.5 -37t-267.5 -131v-649h-51z" />
<glyph unicode="&#x4c0;" horiz-adv-x="473" d="M211 0v1413h51v-1413h-51z" />
<glyph unicode="&#x2000;" horiz-adv-x="915" />
<glyph unicode="&#x2001;" horiz-adv-x="1831" />
<glyph unicode="&#x2002;" horiz-adv-x="915" />
<glyph unicode="&#x2003;" horiz-adv-x="1831" />
<glyph unicode="&#x2004;" horiz-adv-x="610" />
<glyph unicode="&#x2005;" horiz-adv-x="457" />
<glyph unicode="&#x2006;" horiz-adv-x="305" />
<glyph unicode="&#x2007;" horiz-adv-x="305" />
<glyph unicode="&#x2008;" horiz-adv-x="228" />
<glyph unicode="&#x2009;" horiz-adv-x="366" />
<glyph unicode="&#x200a;" horiz-adv-x="101" />
<glyph unicode="&#x2010;" horiz-adv-x="989" d="M176 492v45h637v-45h-637z" />
<glyph unicode="&#x2011;" horiz-adv-x="989" d="M176 492v45h637v-45h-637z" />
<glyph unicode="&#x2012;" horiz-adv-x="989" d="M176 492v45h637v-45h-637z" />
<glyph unicode="&#x2013;" horiz-adv-x="1275" d="M176 492v45h924v-45h-924z" />
<glyph unicode="&#x2014;" horiz-adv-x="1910" d="M176 492v45h1559v-45h-1559z" />
<glyph unicode="&#x2018;" horiz-adv-x="403" d="M170 1106v131q4 152 35 260l22 -10q-6 -82 -6 -230q16 0 10 -20v-131q3 -25 -20 -25h-18q-23 0 -23 25z" />
<glyph unicode="&#x2019;" horiz-adv-x="399" d="M172 1321v131q-4 25 21 25h18q23 0 22 -25v-131q-4 -152 -34 -260l-23 10q6 82 6 229q-16 0 -10 21z" />
<glyph unicode="&#x201a;" horiz-adv-x="425" d="M182 20v132q-2 24 23 24h18q25 0 25 -24v-132q-4 -143 -37 -260l-25 11q8 109 9 229q-18 0 -13 20z" />
<glyph unicode="&#x201c;" horiz-adv-x="636" d="M170 1106v131q4 152 35 260l22 -10q-6 -82 -6 -230q16 0 10 -20v-131q3 -25 -20 -25h-18q-23 0 -23 25zM403 1106v131q4 152 35 260l23 -10q-6 -82 -6 -230q16 0 10 -20v-131q2 -25 -21 -25h-18q-23 0 -23 25z" />
<glyph unicode="&#x201d;" horiz-adv-x="632" d="M172 1321v131q-4 25 21 25h18q23 0 22 -25v-131q-4 -152 -34 -260l-23 10q6 82 6 229q-16 0 -10 21zM406 1321v131q-5 25 20 25h18q23 0 23 -25v-131q-4 -152 -35 -260l-22 10q6 82 6 229q-16 0 -10 21z" />
<glyph unicode="&#x201e;" horiz-adv-x="657" d="M182 20v132q-2 24 21 24h18q23 0 23 -24v-132q-4 -152 -35 -260l-23 11q6 82 7 229q-16 0 -11 20zM416 20v132q-3 24 20 24h19q23 0 22 -24v-132q-4 -152 -35 -260l-22 11q6 82 6 229q-16 0 -10 20z" />
<glyph unicode="&#x2026;" horiz-adv-x="1576" d="M176 25v127q0 24 25 24h20q25 0 25 -24v-127q0 -25 -25 -25h-20q-25 0 -25 25zM754 25v127q-1 24 24 24h21q25 0 24 -24v-127q0 -25 -24 -25h-21q-25 0 -24 25zM1331 25v127q0 24 25 24h20q25 0 25 -24v-127q0 -25 -25 -25h-20q-25 0 -25 25z" />
<glyph unicode="&#x202f;" horiz-adv-x="366" />
<glyph unicode="&#x2039;" horiz-adv-x="460" d="M43 506v16l334 408l24 -21l-303 -395l305 -399l-24 -21z" />
<glyph unicode="&#x203a;" horiz-adv-x="462" d="M57 115l305 399l-303 395l25 21l336 -408v-16l-338 -412z" />
<glyph unicode="&#x205f;" horiz-adv-x="457" />
<glyph unicode="&#x20ac;" horiz-adv-x="1327" d="M139 565v43h197q-2 31 -2 99q0 53 4 143h-199v43h203q27 274 148.5 409.5t365.5 135.5q186 0 328 -35l-13 -37q-145 25 -315 25q-217 0 -326.5 -123t-134.5 -375h592l-16 -43h-580q-4 -90 -4 -143q0 -68 2 -99h490l-17 -43h-471q20 -274 130 -408t335 -134q197 -1 332 26 l12 -37q-143 -37 -344 -37q-254 0 -376 146.5t-142 443.5h-199z" />
<glyph unicode="&#x2122;" horiz-adv-x="1939" d="M160 1386v39h633v-39h-295v-739h-45v739h-293zM915 647l35 754q4 25 25 24h63q16 0 21 -16l223 -547q8 -18 21.5 -54l19.5 -52h31l43 108l219 545q6 16 22 16h64q25 0 24 -24l35 -754h-45l-35 739h-28l-264 -651q-4 -16 -23 -16h-55q-18 0 -23 16l-264 651h-29l-34 -739 h-46z" />
<glyph unicode="&#x25fc;" horiz-adv-x="983" d="M0 0v983h983v-983h-983z" />
</font>
</defs>
</svg>
